<svg width="40" height="41" viewBox="0 0 40 41" fill="none" xmlns="http://www.w3.org/2000/svg">
<path d="M26.9835 3.63306H13.0168C6.95016 3.63306 3.3335 7.24972 3.3335 13.3164V27.2664C3.3335 33.3497 6.95016 36.9664 13.0168 36.9664H26.9668C33.0335 36.9664 36.6502 33.3497 36.6502 27.2831V13.3164C36.6668 7.24972 33.0502 3.63306 26.9835 3.63306Z" fill="black"/>
<path d="M26.6668 19.0497H21.2502V13.6331C21.2502 12.9497 20.6835 12.3831 20.0002 12.3831C19.3168 12.3831 18.7502 12.9497 18.7502 13.6331V19.0497H13.3335C12.6502 19.0497 12.0835 19.6164 12.0835 20.2997C12.0835 20.9831 12.6502 21.5497 13.3335 21.5497H18.7502V26.9664C18.7502 27.6497 19.3168 28.2164 20.0002 28.2164C20.6835 28.2164 21.2502 27.6497 21.2502 26.9664V21.5497H26.6668C27.3502 21.5497 27.9168 20.9831 27.9168 20.2997C27.9168 19.6164 27.3502 19.0497 26.6668 19.0497Z" fill="#EBEAE8"/>
</svg>
