<svg width="170" height="32" viewBox="0 0 170 32" fill="none" xmlns="http://www.w3.org/2000/svg">
<g filter="url(#filter0_i_315_1271)">
<path d="M7.11 31H0.09L11.205 0.849999H21.015L32.13 31H24.795L22.365 24.295H9.585L7.11 31ZM13.5 13.585L11.79 18.265H20.16L18.45 13.585L16.245 6.79H15.795L13.5 13.585ZM39.1609 31H32.4109V0.849999H39.1609V31ZM56.4666 31H49.7166V0.849999H72.3516V6.925H56.4666V13.81H71.6766V19.84H56.4666V31ZM81.0935 31H74.3435V0.849999H81.0935V31ZM106.657 31H84.3367V0.849999H91.0867V24.925H106.657V31ZM114.395 31H107.645V0.849999H117.14L122.405 14.935L124.835 22.675H125.285L127.67 14.935L132.71 0.849999H142.205V31H135.455V16.735L135.815 10.93H135.32L133.565 16.825L129.02 28.93H120.83L116.285 16.825L114.485 10.93H114.035L114.395 16.735V31ZM157.976 31.45C149.111 31.45 145.016 27.85 145.016 21.19V20.605H151.631V21.055C151.631 24.385 152.846 25.33 158.291 25.33C162.116 25.33 163.061 24.565 163.061 22.54C163.061 20.515 162.611 19.795 158.381 19.075L153.071 18.13C147.311 17.14 144.881 14.215 144.881 9.535C144.881 4.945 148.256 0.4 156.896 0.4C165.491 0.4 169.091 4.855 169.091 10.84V11.2H162.431V10.705C162.431 7.555 161.126 6.52 156.671 6.52C152.801 6.52 151.586 7.375 151.586 9.265C151.586 11.2 152.396 11.65 155.906 12.325L161.261 13.36C167.606 14.575 169.766 17.905 169.766 22.315C169.766 27.13 166.526 31.45 157.976 31.45Z" fill="#D4D4D8"/>
</g>
<defs>
<filter id="filter0_i_315_1271" x="0.0900879" y="0.399902" width="169.676" height="35.05" filterUnits="userSpaceOnUse" color-interpolation-filters="sRGB">
<feFlood flood-opacity="0" result="BackgroundImageFix"/>
<feBlend mode="normal" in="SourceGraphic" in2="BackgroundImageFix" result="shape"/>
<feColorMatrix in="SourceAlpha" type="matrix" values="0 0 0 0 0 0 0 0 0 0 0 0 0 0 0 0 0 0 127 0" result="hardAlpha"/>
<feOffset dy="4"/>
<feGaussianBlur stdDeviation="2"/>
<feComposite in2="hardAlpha" operator="arithmetic" k2="-1" k3="1"/>
<feColorMatrix type="matrix" values="0 0 0 0 0 0 0 0 0 0 0 0 0 0 0 0 0 0 0.25 0"/>
<feBlend mode="normal" in2="shape" result="effect1_innerShadow_315_1271"/>
</filter>
</defs>
</svg>
