<svg width="441" height="56" viewBox="0 0 441 56" fill="none" xmlns="http://www.w3.org/2000/svg">
<g style="mix-blend-mode:luminosity" filter="url(#filter0_i_154_871)">
<path d="M33.664 44H0.449043V0.449999H33.664V9.225H10.199V17.74H32.689V26.45H10.199V35.225H33.664V44ZM45.2904 44H34.3704L45.2254 27.75V27.165L34.3704 11.305H45.6154L52.6354 22.225H53.2204L60.0454 11.305H70.9654L60.1104 27.555V28.205L70.9654 44H59.6554L52.7004 33.145H52.0504L45.2904 44ZM81.4071 54.92H71.6571V11.305H80.6921V16.115H81.0171C82.7721 12.605 86.5421 10.655 91.4171 10.655C100.647 10.655 105.457 17.35 105.457 27.685C105.457 37.955 100.452 44.65 91.6121 44.65C86.4121 44.65 83.2271 42.505 81.7321 39.71H81.4071V54.92ZM81.4071 30.285C81.4071 34.705 83.9421 36.33 88.5571 36.33C94.2121 36.33 95.7071 33.6 95.7071 27.685C95.7071 21.705 94.2121 18.975 88.5571 18.975C83.9421 18.975 81.4071 20.6 81.4071 25.02V30.285ZM118.84 44H109.155V0.449999H118.84V44ZM138.816 44.65C128.286 44.65 122.046 38.02 122.046 27.685C122.046 17.285 128.286 10.655 138.816 10.655C149.281 10.655 155.391 17.285 155.391 27.685C155.391 38.02 149.281 44.65 138.816 44.65ZM138.816 36.07C144.081 36.07 145.901 33.99 145.901 27.685C145.901 21.315 144.081 19.235 138.816 19.235C133.486 19.235 131.666 21.315 131.666 27.685C131.666 33.99 133.486 36.07 138.816 36.07ZM168.227 44H158.542V11.305H167.577V16.57H167.967C169.592 13.255 172.517 10.655 177.132 10.655C183.957 10.655 186.492 15.725 186.492 22.29V25.28H176.807V23.525C176.807 20.015 175.702 18.91 172.647 18.91C169.657 18.91 168.227 19.95 168.227 23.525V44ZM204.254 44.65C193.009 44.65 187.874 38.085 187.874 27.75C187.874 17.285 194.114 10.655 204.319 10.655C214.134 10.655 219.919 16.505 219.919 25.02C219.919 26.84 219.659 28.725 219.464 29.83H197.039C197.234 34.38 199.054 36.2 204.384 36.2C208.284 36.2 209.974 35.355 209.974 33.34V32.95H219.594V33.6C219.594 40.555 213.614 44.65 204.254 44.65ZM203.994 18.65C199.314 18.65 197.494 20.47 197.104 23.915H210.559C210.754 20.535 208.544 18.65 203.994 18.65ZM244.565 44H234.815V0.449999H244.565V17.805H252.82L263.025 0.449999H274.075L260.945 22.03L273.88 44H262.7L252.95 27.23H244.565V44ZM285.029 44H275.344V0.449999H285.029V44ZM298.377 44.65C292.592 44.65 288.107 41.595 288.107 35.68C288.107 30.61 291.747 27.49 298.507 26.45L309.687 24.76V23.72C309.687 19.885 307.607 19.17 303.772 19.17C299.807 19.17 298.247 20.275 298.247 23.59V24.305H288.952V23.59C288.952 15.79 294.997 10.655 304.227 10.655C313.847 10.655 318.917 15.92 318.917 24.63V44H309.882V39.58H309.492C307.737 41.985 304.422 44.65 298.377 44.65ZM297.402 34.9C297.402 36.655 298.767 37.24 301.627 37.24C305.592 37.24 309.687 36.2 309.687 31.13L300.327 32.56C298.312 32.885 297.402 33.535 297.402 34.9ZM328.192 55.05C325.982 55.05 323.577 54.66 322.212 54.335V46.275H327.672C330.142 46.275 331.052 45.95 332.027 43.87L332.612 42.635L318.897 11.305H329.752L335.082 24.955L337.422 31.26H338.137L340.152 24.955L344.767 11.305H355.622L341.062 46.275C338.267 52.97 334.627 55.05 328.192 55.05ZM372.789 44.13C364.274 44.13 360.179 41.01 360.179 33.275V19.365H354.979V11.305H360.439L362.259 3.7H369.929V11.305H379.159V19.365H369.929V32.17C369.929 35.03 370.904 35.355 375.129 35.355H379.159V43.48C377.599 43.805 375.064 44.13 372.789 44.13ZM391.409 7.6H381.854L381.724 0.449999H391.409V7.6ZM391.604 44H381.854V11.305H391.604V44ZM410.758 44.65C399.968 44.65 394.183 38.085 394.183 27.75C394.183 17.285 400.358 10.655 411.278 10.655C419.988 10.655 426.358 15.985 426.358 24.045V24.825H416.608V24.305C416.608 20.6 414.528 19.365 410.498 19.365C405.818 19.365 403.803 21.575 403.803 27.685C403.803 33.73 405.818 35.94 410.498 35.94C414.528 35.94 416.608 34.705 416.608 31V30.48H426.358V31.26C426.358 39.32 419.793 44.65 410.758 44.65ZM440.529 44H428.309V32.495H440.529V44Z" fill="url(#paint0_linear_154_871)"/>
</g>
<defs>
<filter id="filter0_i_154_871" x="0.448975" y="0.450195" width="440.08" height="58.5996" filterUnits="userSpaceOnUse" color-interpolation-filters="sRGB">
<feFlood flood-opacity="0" result="BackgroundImageFix"/>
<feBlend mode="normal" in="SourceGraphic" in2="BackgroundImageFix" result="shape"/>
<feColorMatrix in="SourceAlpha" type="matrix" values="0 0 0 0 0 0 0 0 0 0 0 0 0 0 0 0 0 0 127 0" result="hardAlpha"/>
<feOffset dy="4"/>
<feGaussianBlur stdDeviation="2"/>
<feComposite in2="hardAlpha" operator="arithmetic" k2="-1" k3="1"/>
<feColorMatrix type="matrix" values="0 0 0 0 0 0 0 0 0 0 0 0 0 0 0 0 0 0 0.25 0"/>
<feBlend mode="normal" in2="shape" result="effect1_innerShadow_154_871"/>
</filter>
<linearGradient id="paint0_linear_154_871" x1="-3" y1="-17" x2="24.8049" y2="138.013" gradientUnits="userSpaceOnUse">
<stop stop-color="#D4D4D8"/>
<stop offset="0.23" stop-color="#D4D4D8"/>
<stop offset="0.46" stop-color="#D4D4D8"/>
<stop offset="0.59" stop-color="#D4D4D8"/>
<stop offset="0.67" stop-color="#D4D4D8"/>
<stop offset="0.9" stop-color="#D4D4D8"/>
<stop offset="0.92" stop-color="#D4D4D8"/>
<stop offset="1" stop-color="#D4D4D8"/>
</linearGradient>
</defs>
</svg>
