<svg width="430" height="57" viewBox="0 0 430 57" fill="none" xmlns="http://www.w3.org/2000/svg">
<g style="mix-blend-mode:luminosity" filter="url(#filter0_i_154_854)">
<path d="M10.0389 44.5H0.288887V0.949999H10.0389V18.305H18.2939L28.4989 0.949999H39.5489L26.4189 22.53L39.3539 44.5H28.1739L18.4239 27.73H10.0389V44.5ZM50.5034 44.5H40.8184V0.949999H50.5034V44.5ZM63.8513 45.15C58.0663 45.15 53.5813 42.095 53.5813 36.18C53.5813 31.11 57.2213 27.99 63.9813 26.95L75.1613 25.26V24.22C75.1613 20.385 73.0813 19.67 69.2463 19.67C65.2813 19.67 63.7213 20.775 63.7213 24.09V24.805H54.4263V24.09C54.4263 16.29 60.4713 11.155 69.7013 11.155C79.3213 11.155 84.3913 16.42 84.3913 25.13V44.5H75.3563V40.08H74.9663C73.2113 42.485 69.8963 45.15 63.8513 45.15ZM62.8763 35.4C62.8763 37.155 64.2413 37.74 67.1013 37.74C71.0663 37.74 75.1613 36.7 75.1613 31.63L65.8013 33.06C63.7863 33.385 62.8763 34.035 62.8763 35.4ZM93.6665 55.55C91.4565 55.55 89.0515 55.16 87.6865 54.835V46.775H93.1465C95.6165 46.775 96.5265 46.45 97.5015 44.37L98.0865 43.135L84.3715 11.805H95.2265L100.556 25.455L102.896 31.76H103.611L105.626 25.455L110.241 11.805H121.096L106.536 46.775C103.741 53.47 100.101 55.55 93.6665 55.55ZM138.263 44.63C129.748 44.63 125.653 41.51 125.653 33.775V19.865H120.453V11.805H125.913L127.733 4.2H135.403V11.805H144.633V19.865H135.403V32.67C135.403 35.53 136.378 35.855 140.603 35.855H144.633V43.98C143.073 44.305 140.538 44.63 138.263 44.63ZM156.883 8.1H147.328L147.198 0.949999H156.883V8.1ZM157.078 44.5H147.328V11.805H157.078V44.5ZM176.232 45.15C165.442 45.15 159.657 38.585 159.657 28.25C159.657 17.785 165.832 11.155 176.752 11.155C185.462 11.155 191.832 16.485 191.832 24.545V25.325H182.082V24.805C182.082 21.1 180.002 19.865 175.972 19.865C171.292 19.865 169.277 22.075 169.277 28.185C169.277 34.23 171.292 36.44 175.972 36.44C180.002 36.44 182.082 35.205 182.082 31.5V30.98H191.832V31.76C191.832 39.82 185.267 45.15 176.232 45.15ZM216.221 44.5H206.471V0.949999H216.221V44.5ZM230.787 44.5H221.102V11.805H230.137V17.525H230.527C232.282 13.82 235.792 11.155 241.512 11.155C250.027 11.155 253.667 16.81 253.667 23.765V44.5H243.917V25.715C243.917 21.165 242.422 19.54 237.482 19.54C232.802 19.54 230.787 21.035 230.787 25.975V44.5ZM272.316 45.15C262.046 45.15 257.041 41.315 257.041 33.385V33.19H266.336V34.555C266.336 36.96 267.766 37.48 272.511 37.48C276.476 37.48 277.126 36.895 277.126 35.27C277.126 33.515 276.216 33.125 271.861 32.345L266.921 31.435C260.486 30.265 256.976 27.535 256.976 21.49C256.976 15.445 261.916 11.155 271.211 11.155C279.206 11.155 285.316 14.925 285.316 22.27V23.18H276.021V22.27C276.021 20.125 275.111 18.955 270.951 18.955C267.051 18.955 266.141 19.8 266.141 21.36C266.141 22.92 266.726 23.375 270.626 24.155L276.606 25.39C283.496 26.69 286.356 29.81 286.356 35.14C286.356 41.25 281.351 45.15 272.316 45.15ZM298.507 8.1H288.952L288.822 0.949999H298.507V8.1ZM298.702 44.5H288.952V11.805H298.702V44.5ZM315.126 41.055C306.091 41.055 301.281 35.27 301.281 26.17C301.281 17.07 306.221 11.155 315.516 11.155C320.196 11.155 323.901 12.975 325.656 16.55H325.981V11.805H335.016V40.86C335.016 51.52 329.361 56.2 318.831 56.2C308.626 56.2 302.906 51.715 302.906 43.395H312.591C312.591 46.775 313.566 47.62 319.156 47.62C324.291 47.62 325.331 46.45 325.331 41.38V36.31H324.941C323.511 38.845 320.066 41.055 315.126 41.055ZM310.966 26.17C310.966 30.785 312.591 32.93 318.116 32.93C322.796 32.93 325.331 31.305 325.331 27.145V25.195C325.331 21.035 322.861 19.41 318.181 19.41C312.591 19.41 310.966 21.555 310.966 26.17ZM349.366 44.5H339.681V0.949999H349.366V16.875H349.756C351.511 13.82 355.086 11.155 360.286 11.155C368.736 11.155 372.246 16.81 372.246 23.765V44.5H362.496V25.715C362.496 21.165 361.001 19.54 356.061 19.54C351.381 19.54 349.366 21.1 349.366 26.04V44.5ZM391.484 44.63C382.969 44.63 378.874 41.51 378.874 33.775V19.865H373.674V11.805H379.134L380.954 4.2H388.624V11.805H397.854V19.865H388.624V32.67C388.624 35.53 389.599 35.855 393.824 35.855H397.854V43.98C396.294 44.305 393.759 44.63 391.484 44.63ZM415.304 45.15C405.034 45.15 400.029 41.315 400.029 33.385V33.19H409.324V34.555C409.324 36.96 410.754 37.48 415.499 37.48C419.464 37.48 420.114 36.895 420.114 35.27C420.114 33.515 419.204 33.125 414.849 32.345L409.909 31.435C403.474 30.265 399.964 27.535 399.964 21.49C399.964 15.445 404.904 11.155 414.199 11.155C422.194 11.155 428.304 14.925 428.304 22.27V23.18H419.009V22.27C419.009 20.125 418.099 18.955 413.939 18.955C410.039 18.955 409.129 19.8 409.129 21.36C409.129 22.92 409.714 23.375 413.614 24.155L419.594 25.39C426.484 26.69 429.344 29.81 429.344 35.14C429.344 41.25 424.339 45.15 415.304 45.15Z" fill="url(#paint0_linear_154_854)"/>
</g>
<defs>
<filter id="filter0_i_154_854" x="0.288818" y="0.949951" width="429.055" height="59.2502" filterUnits="userSpaceOnUse" color-interpolation-filters="sRGB">
<feFlood flood-opacity="0" result="BackgroundImageFix"/>
<feBlend mode="normal" in="SourceGraphic" in2="BackgroundImageFix" result="shape"/>
<feColorMatrix in="SourceAlpha" type="matrix" values="0 0 0 0 0 0 0 0 0 0 0 0 0 0 0 0 0 0 127 0" result="hardAlpha"/>
<feOffset dy="4"/>
<feGaussianBlur stdDeviation="2"/>
<feComposite in2="hardAlpha" operator="arithmetic" k2="-1" k3="1"/>
<feColorMatrix type="matrix" values="0 0 0 0 0 0 0 0 0 0 0 0 0 0 0 0 0 0 0.25 0"/>
<feBlend mode="normal" in2="shape" result="effect1_innerShadow_154_854"/>
</filter>
<linearGradient id="paint0_linear_154_854" x1="-3" y1="-16.5" x2="25.5239" y2="138.242" gradientUnits="userSpaceOnUse">
<stop stop-color="#D4D4D8"/>
<stop offset="0.23" stop-color="#D4D4D8"/>
<stop offset="0.46" stop-color="#D4D4D8"/>
<stop offset="0.59" stop-color="#D4D4D8"/>
<stop offset="0.67" stop-color="#D4D4D8"/>
<stop offset="0.9" stop-color="#D4D4D8"/>
<stop offset="0.92" stop-color="#D4D4D8"/>
<stop offset="1" stop-color="#D4D4D8"/>
</linearGradient>
</defs>
</svg>
