<svg width="185" height="32" viewBox="0 0 185 32" fill="none" xmlns="http://www.w3.org/2000/svg">
<g filter="url(#filter0_i_315_1268)">
<path d="M6.865 31H0.115V0.849999H13.975C20.455 0.849999 25.09 4.765 25.09 11.47C25.09 18.22 20.455 22.045 13.975 22.045H6.865V31ZM14.245 6.925H6.865V16.015H14.245C17.35 16.015 18.385 15.07 18.385 11.47C18.385 7.825 17.35 6.925 14.245 6.925ZM40.6663 31.45C31.6663 31.45 26.1763 25.33 26.1763 15.925C26.1763 6.52 31.6663 0.4 40.6663 0.4C49.6663 0.4 55.1113 6.52 55.1113 15.925C55.1113 25.33 49.6663 31.45 40.6663 31.45ZM40.6663 24.925C45.8413 24.925 47.9113 22.99 47.9113 15.925C47.9113 8.86 45.8413 6.925 40.6663 6.925C35.4913 6.925 33.3763 8.86 33.3763 15.925C33.3763 22.99 35.4913 24.925 40.6663 24.925ZM70.1072 31.45C61.2422 31.45 57.1472 27.85 57.1472 21.19V20.605H63.7622V21.055C63.7622 24.385 64.9772 25.33 70.4222 25.33C74.2472 25.33 75.1922 24.565 75.1922 22.54C75.1922 20.515 74.7422 19.795 70.5122 19.075L65.2022 18.13C59.4422 17.14 57.0122 14.215 57.0122 9.535C57.0122 4.945 60.3872 0.4 69.0272 0.4C77.6222 0.4 81.2222 4.855 81.2222 10.84V11.2H74.5622V10.705C74.5622 7.555 73.2572 6.52 68.8022 6.52C64.9322 6.52 63.7172 7.375 63.7172 9.265C63.7172 11.2 64.5272 11.65 68.0372 12.325L73.3922 13.36C79.7372 14.575 81.8972 17.905 81.8972 22.315C81.8972 27.13 78.6572 31.45 70.1072 31.45ZM96.9223 31H90.1723V6.925H80.4523V0.849999H106.642V6.925H96.9223V31ZM130.055 31H107.06V0.849999H130.055V6.925H113.81V12.82H129.38V18.85H113.81V24.925H130.055V31ZM139.228 31H132.478V0.849999H146.338C153.538 0.849999 157.543 4.18 157.543 10.03C157.543 14.935 155.113 17.86 149.938 18.31V18.76C152.548 19.57 153.808 21.145 154.978 23.44L158.803 31H150.928L147.373 24.025C146.023 21.415 145.123 20.29 141.928 20.29H139.228V31ZM139.228 6.925V14.71H146.653C149.803 14.71 150.838 13.765 150.838 10.795C150.838 7.915 149.803 6.925 146.653 6.925H139.228ZM172.438 31.45C163.573 31.45 159.478 27.85 159.478 21.19V20.605H166.093V21.055C166.093 24.385 167.308 25.33 172.753 25.33C176.578 25.33 177.523 24.565 177.523 22.54C177.523 20.515 177.073 19.795 172.843 19.075L167.533 18.13C161.773 17.14 159.343 14.215 159.343 9.535C159.343 4.945 162.718 0.4 171.358 0.4C179.953 0.4 183.553 4.855 183.553 10.84V11.2H176.893V10.705C176.893 7.555 175.588 6.52 171.133 6.52C167.263 6.52 166.048 7.375 166.048 9.265C166.048 11.2 166.858 11.65 170.368 12.325L175.723 13.36C182.068 14.575 184.228 17.905 184.228 22.315C184.228 27.13 180.988 31.45 172.438 31.45Z" fill="#D4D4D8"/>
</g>
<defs>
<filter id="filter0_i_315_1268" x="0.11499" y="0.399902" width="184.113" height="35.05" filterUnits="userSpaceOnUse" color-interpolation-filters="sRGB">
<feFlood flood-opacity="0" result="BackgroundImageFix"/>
<feBlend mode="normal" in="SourceGraphic" in2="BackgroundImageFix" result="shape"/>
<feColorMatrix in="SourceAlpha" type="matrix" values="0 0 0 0 0 0 0 0 0 0 0 0 0 0 0 0 0 0 127 0" result="hardAlpha"/>
<feOffset dy="4"/>
<feGaussianBlur stdDeviation="2"/>
<feComposite in2="hardAlpha" operator="arithmetic" k2="-1" k3="1"/>
<feColorMatrix type="matrix" values="0 0 0 0 0 0 0 0 0 0 0 0 0 0 0 0 0 0 0.25 0"/>
<feBlend mode="normal" in2="shape" result="effect1_innerShadow_315_1268"/>
</filter>
</defs>
</svg>
