<svg width="12" height="12" viewBox="0 0 12 12" fill="none" xmlns="http://www.w3.org/2000/svg">
<path d="M10.4656 5.11565L10.4656 5.11567L10.4697 5.11787C10.6298 5.20298 10.7637 5.33003 10.857 5.48541C10.9504 5.64079 10.9997 5.81864 10.9997 5.99991C10.9997 6.18118 10.9504 6.35903 10.857 6.51441C10.7637 6.66979 10.6298 6.79684 10.4697 6.88195L10.4697 6.88193L10.4656 6.88416L4.05964 10.3677L4.05945 10.3678C3.34534 10.7565 2.5 10.2412 2.5 9.48391V2.51641C2.5 1.75881 3.34522 1.24361 4.05961 1.63165C4.05967 1.63168 4.05972 1.63171 4.05978 1.63174L10.4656 5.11565Z" stroke="black"/>
</svg>
