<svg width="23" height="22" viewBox="0 0 23 22" fill="none" xmlns="http://www.w3.org/2000/svg">
<path d="M14.7083 4.93764L16.0428 7.45549C16.2226 7.8037 16.7053 8.13406 17.1123 8.20549L19.5257 8.58049C21.0683 8.82156 21.428 9.87513 20.3207 10.9287L18.4372 12.7055C18.1249 13.0001 17.9451 13.5805 18.0492 14.0001L18.5887 16.1966C19.0146 17.9287 18.0303 18.6073 16.4119 17.6966L14.1499 16.4287C13.743 16.1966 13.0615 16.1966 12.6546 16.4287L10.3926 17.6966C8.77421 18.5983 7.78993 17.9287 8.21583 16.1966L8.7553 14.0001C8.85941 13.5894 8.67958 13.0091 8.36726 12.7055L6.48388 10.9287C5.37655 9.88406 5.73619 8.83049 7.27887 8.58049L9.69225 8.20549C10.0992 8.14299 10.5819 7.8037 10.7617 7.45549L12.0962 4.93764C12.806 3.57157 13.9796 3.57157 14.7083 4.93764Z" stroke="black" stroke-width="1.5" stroke-linecap="round" stroke-linejoin="round"/>
<path d="M7.71422 4.75H2.03564" stroke="black" stroke-width="1.5" stroke-linecap="round" stroke-linejoin="round"/>
<path d="M4.87493 17.25H2.03564" stroke="black" stroke-width="1.5" stroke-linecap="round" stroke-linejoin="round"/>
<path d="M2.98207 11H2.03564" stroke="black" stroke-width="1.5" stroke-linecap="round" stroke-linejoin="round"/>
</svg>
