<svg width="391" height="660" viewBox="0 0 391 660" fill="none" xmlns="http://www.w3.org/2000/svg">
<g style="mix-blend-mode:difference">
<path fill-rule="evenodd" clip-rule="evenodd" d="M101 24.5C101 23.1072 101 22.4108 100.97 21.8224C100.366 10.046 90.954 0.633899 79.1776 0.0301654C78.5892 0 77.8928 0 76.5 0H30C15.8579 0 8.7868 0 4.3934 4.3934C0 8.7868 0 15.8579 0 30V630C0 644.142 0 651.213 4.3934 655.607C8.7868 660 15.8579 660 30 660H361C375.142 660 382.213 660 386.607 655.607C391 651.213 391 644.142 391 630V30C391 15.8579 391 8.7868 386.607 4.3934C382.213 0 375.142 0 361 0H314.5C313.107 0 312.411 0 311.822 0.0301654C300.046 0.633899 290.634 10.046 290.03 21.8224C290 22.4108 290 23.1072 290 24.5C290 25.8928 290 26.5892 289.97 27.1776C289.366 38.954 279.954 48.3661 268.178 48.9698C267.589 49 266.893 49 265.5 49H125.5C124.107 49 123.411 49 122.822 48.9698C111.046 48.3661 101.634 38.954 101.03 27.1776C101 26.5892 101 25.8928 101 24.5Z" fill="#13141417"/>
</g>
</svg>
