<?xml version="1.0" encoding="UTF-8"?>
<svg xmlns="http://www.w3.org/2000/svg" xmlns:xlink="http://www.w3.org/1999/xlink" width="420px" height="350px" viewBox="0 0 420 350" version="1.1">
<g id="surface1">
<path style=" stroke:none;fill-rule:evenodd;fill:rgb(7.450981%,7.843138%,7.843138%);fill-opacity:0.0901961;" d="M 4.320312 4.632812 C 0 9.261719 0 16.71875 0 31.625 L 0 317.847656 C 0 332.753906 0 340.210938 4.320312 344.839844 C 8.644531 349.472656 15.597656 349.472656 29.507812 349.472656 L 390.492188 349.472656 C 404.402344 349.472656 411.355469 349.472656 415.679688 344.839844 C 420 340.210938 420 332.753906 420 317.847656 L 420 101.203125 C 420 78.34375 420 66.914062 413.375 59.8125 C 406.746094 52.710938 396.082031 52.710938 374.753906 52.710938 L 193.769531 52.710938 C 191.945312 52.710938 191.03125 52.710938 190.257812 52.65625 C 178.980469 51.828125 170.003906 42.207031 169.234375 30.117188 C 169.179688 29.292969 169.179688 28.3125 169.179688 26.355469 C 169.179688 24.398438 169.179688 23.417969 169.128906 22.59375 C 168.355469 10.503906 159.378906 0.882812 148.101562 0.0546875 C 147.332031 0 146.417969 0 144.589844 0 L 29.507812 0 C 15.597656 0 8.644531 0 4.320312 4.632812 Z M 4.320312 4.632812 "/>
</g>
</svg>
