<svg width="427" height="683" viewBox="0 0 427 683" fill="none" xmlns="http://www.w3.org/2000/svg">
<g style="mix-blend-mode:difference">
<path fill-rule="evenodd" clip-rule="evenodd" d="M85 29.5C85 23.4579 85 20.4369 84.4358 17.9367C82.4819 9.27903 75.721 2.5181 67.0633 0.564242C64.5631 0 61.542 0 55.5 0H30C15.8579 0 8.7868 0 4.3934 4.3934C0 8.7868 0 15.8579 0 30V653C0 667.142 0 674.213 4.3934 678.607C8.7868 683 15.8579 683 30 683H397C411.142 683 418.213 683 422.607 678.607C427 674.213 427 667.142 427 653V30C427 15.8579 427 8.7868 422.607 4.3934C418.213 0 411.142 0 397 0H370.5C364.458 0 361.437 0 358.937 0.564242C350.279 2.5181 343.518 9.27903 341.564 17.9367C341 20.4369 341 23.4579 341 29.5C341 35.542 341 38.5631 340.436 41.0633C338.482 49.721 331.721 56.4819 323.063 58.4358C320.563 59 317.542 59 311.5 59H114.5C108.458 59 105.437 59 102.937 58.4358C94.279 56.4819 87.5181 49.721 85.5642 41.0633C85 38.5631 85 35.542 85 29.5Z" fill="#13141470"/>
</g>
</svg>
