<svg width="427" height="332" viewBox="0 0 427 332" fill="none" xmlns="http://www.w3.org/2000/svg">
<g style="mix-blend-mode:difference">
<path fill-rule="evenodd" clip-rule="evenodd" d="M4.3934 4.3934C0 8.7868 0 15.8579 0 30V301.5C0 315.642 0 322.713 4.3934 327.107C8.7868 331.5 15.8579 331.5 30 331.5H397C411.142 331.5 418.213 331.5 422.607 327.107C427 322.713 427 315.642 427 301.5V96C427 74.3154 427 63.4731 420.263 56.7365C413.527 50 402.685 50 381 50H197C195.143 50 194.214 50 193.43 49.9464C181.965 49.1621 172.838 40.0351 172.054 28.5696C172 27.7857 172 26.8571 172 25C172 23.1429 172 22.2143 171.946 21.4304C171.162 9.96489 162.035 0.837882 150.57 0.0536183C149.786 0 148.857 0 147 0H30C15.8579 0 8.7868 0 4.3934 4.3934Z" fill="#13141417"/>
</g>
</svg>
