<svg width="65" height="129" viewBox="0 0 65 129" fill="none" xmlns="http://www.w3.org/2000/svg">
<path d="M0.499998 0L0.512483 64.4365L25.1832 4.90975L0.535889 64.4464L46.1083 18.8916L0.553573 64.4641L60.0902 39.8168L0.563454 64.4875L65 64.5L0.563454 64.5125L60.0902 89.1832L0.553573 64.5359L46.1083 110.108L0.535889 64.5536L25.1832 124.09L0.512483 64.5635L0.499998 129L0.487513 64.5635L-24.1832 124.09L0.464106 64.5536L-45.1084 110.108L0.446423 64.5359L-59.0902 89.1832L0.436541 64.5125L-64 64.5L0.436541 64.4875L-59.0902 39.8168L0.446423 64.4641L-45.1084 18.8916L0.464106 64.4464L-24.1832 4.90975L0.487513 64.4365L0.499998 0Z" stroke="black" stroke-width="9"/>
</svg>
