<svg width="25" height="25" viewBox="0 0 25 25" fill="none" xmlns="http://www.w3.org/2000/svg">
<g clip-path="url(#clip0_315_2160)">
<path d="M24.03 2.46636C23.6439 2.11259 23.0952 1.9947 22.5978 2.15862L1.49521 9.11492C0.920104 9.30448 0.530104 9.81786 0.501651 10.4227C0.473245 11.0276 0.813323 11.5753 1.36804 11.8181L6.58687 14.1014C6.61232 14.2196 8.1105 21.1681 8.16145 21.4043C8.22684 21.7077 8.38082 21.9779 8.70703 22.061C9.03698 22.1451 9.27009 21.9648 9.51628 21.7805C9.65329 21.6779 13.3891 18.8805 13.3891 18.8805L17.9167 22.5855C18.1804 22.8014 18.5027 22.914 18.8314 22.914C18.9878 22.9139 19.1458 22.8884 19.2995 22.8363C19.776 22.6747 20.1292 22.2858 20.2444 21.796L24.4616 3.86623C24.5814 3.35647 24.4162 2.82012 24.03 2.46636ZM9.85364 15.4099C9.85106 15.416 9.84853 15.4228 9.84614 15.4311L8.97314 18.4812L7.99889 13.9626L14.6981 10.2405L10.0143 15.1379C9.94054 15.2151 9.88626 15.3084 9.85364 15.4099ZM10.1307 19.5595L10.5272 18.1741L10.9065 16.849L12.2654 17.961L10.1307 19.5595ZM23.0894 3.54345L18.8723 21.4732C18.8702 21.4821 18.8674 21.4944 18.8468 21.5014C18.8264 21.5083 18.8164 21.5004 18.8094 21.4946L13.8551 17.4405C13.855 17.4404 13.8549 17.4402 13.8547 17.4402L11.5593 15.5618L18.9338 7.85093C19.1747 7.59908 19.1953 7.20903 18.9824 6.93317C18.7693 6.65726 18.3867 6.57846 18.0822 6.74778L7.16259 12.8148L1.93307 10.5267C1.91714 10.5197 1.90837 10.5158 1.90964 10.4889C1.9109 10.462 1.92 10.459 1.9365 10.4535L23.0391 3.49728C23.0493 3.49395 23.0608 3.49011 23.0778 3.50557C23.0947 3.52114 23.0919 3.53295 23.0894 3.54345Z" fill="black"/>
</g>
<defs>
<clipPath id="clip0_315_2160">
<rect width="24" height="24" fill="white" transform="translate(0.5 0.5)"/>
</clipPath>
</defs>
</svg>
