<svg width="426" height="262" viewBox="0 0 426 262" fill="none" xmlns="http://www.w3.org/2000/svg">
<g style="mix-blend-mode:exclusion">
<path fill-rule="evenodd" clip-rule="evenodd" d="M224 19C224 8.50659 215.493 0 205 0H19C8.50659 0 0 8.50659 0 19V65.7828C0 65.9028 0.0972232 66 0.217154 66C0.345487 66 0.445877 66.1098 0.433839 66.2376C-5.06151e-09 70.8423 0 76.6185 0 84V226C0 242.971 0 251.456 5.27208 256.728C10.5442 262 19.0294 262 36 262H390C406.971 262 415.456 262 420.728 256.728C426 251.456 426 242.971 426 226V84C426 67.0294 426 58.5442 420.728 53.2721C415.456 48 406.971 48 390 48H243C232.507 48 224 39.4934 224 29V19Z" fill="#414141"/>
</g>
</svg>
