<svg width="27" height="27" viewBox="0 0 27 27" fill="none" xmlns="http://www.w3.org/2000/svg">
<path fill-rule="evenodd" clip-rule="evenodd" d="M22.1222 4.84209C19.8418 2.55902 16.809 1.30114 13.5781 1.2998C6.92051 1.2998 1.50219 6.71798 1.49951 13.3774C1.49862 15.5062 2.05473 17.5842 3.11176 19.4159L1.39819 25.6748L7.80124 23.9952C9.56554 24.9576 11.5518 25.4647 13.5732 25.4653H13.5783C20.2351 25.4653 25.654 20.0467 25.6566 13.387C25.6579 10.1595 24.4027 7.12502 22.1222 4.84209ZM13.5781 23.4255H13.5739C11.7726 23.4248 10.0059 22.9407 8.46432 22.0261L8.0979 21.8085L4.29823 22.8053L5.31242 19.1007L5.07364 18.7208C4.06867 17.1224 3.538 15.275 3.53889 13.3781C3.54097 7.843 8.04464 3.33978 13.5821 3.33978C16.2636 3.34068 18.7843 4.38625 20.6796 6.28386C22.575 8.18146 23.6182 10.7038 23.6173 13.3863C23.6149 18.9218 19.1116 23.4255 13.5781 23.4255ZM19.0848 15.9067C18.7831 15.7555 17.2992 15.0256 17.0225 14.9248C16.7461 14.824 16.5446 14.7739 16.3437 15.0759C16.1424 15.3779 15.5641 16.0578 15.3879 16.2591C15.2118 16.4605 15.0359 16.4858 14.7341 16.3347C14.4322 16.1837 13.4598 15.8648 12.307 14.8367C11.4099 14.0364 10.8042 13.0481 10.6281 12.7461C10.4522 12.4438 10.6266 12.2962 10.7605 12.1302C11.0872 11.7245 11.4143 11.2991 11.5149 11.0979C11.6156 10.8964 11.5652 10.7201 11.4896 10.5691C11.4143 10.4181 10.8108 8.93261 10.5593 8.32815C10.3142 7.7399 10.0656 7.81934 9.8802 7.81012C9.70435 7.80134 9.50306 7.79956 9.30177 7.79956C9.10063 7.79956 8.77362 7.87498 8.49691 8.17729C8.22034 8.47945 7.44077 9.20948 7.44077 10.695C7.44077 12.1805 8.5222 13.6155 8.67305 13.817C8.82391 14.0184 10.8013 17.0668 13.8286 18.3739C14.5487 18.6851 15.1108 18.8707 15.5492 19.0098C16.2722 19.2395 16.93 19.207 17.4501 19.1294C18.03 19.0426 19.2355 18.3992 19.4872 17.6943C19.7387 16.9893 19.7387 16.3851 19.6631 16.2591C19.5878 16.1332 19.3865 16.0578 19.0848 15.9067Z" fill="black"/>
</svg>
