<svg width="23" height="22" viewBox="0 0 23 22" fill="none" xmlns="http://www.w3.org/2000/svg">
<path d="M17.1596 9.91962V13.491C17.1596 13.7232 17.1501 13.9464 17.1217 14.1607C16.904 16.5714 15.3992 17.7678 12.6262 17.7678H12.2476C12.011 17.7678 11.7839 17.875 11.6419 18.0535L10.5062 19.4821C10.0046 20.116 9.19064 20.116 8.68904 19.4821L7.55331 18.0535C7.43027 17.9017 7.15583 17.7678 6.94761 17.7678H6.56905C3.54994 17.7678 2.03564 17.0625 2.03564 13.491V9.91962C2.03564 7.30354 3.31333 5.8839 5.85922 5.67854C6.08637 5.65176 6.32297 5.64282 6.56905 5.64282H12.6262C15.6453 5.64282 17.1596 7.0714 17.1596 9.91962Z" stroke="black" stroke-width="1.5" stroke-miterlimit="10" stroke-linecap="round" stroke-linejoin="round"/>
<path d="M20.9454 6.34808V9.91951C20.9454 12.5445 19.6678 13.9552 17.1219 14.1606C17.1503 13.9463 17.1597 13.7231 17.1597 13.4909V9.91951C17.1597 7.0713 15.6454 5.64272 12.6263 5.64272H6.5692C6.32312 5.64272 6.08652 5.65165 5.85938 5.67844C6.07705 3.27665 7.58187 2.07129 10.3549 2.07129H16.412C19.4312 2.07129 20.9454 3.49987 20.9454 6.34808Z" stroke="black" stroke-width="1.5" stroke-miterlimit="10" stroke-linecap="round" stroke-linejoin="round"/>
<path d="M12.9152 12.1161H12.9238" stroke="black" stroke-width="2" stroke-linecap="round" stroke-linejoin="round"/>
<path d="M9.60274 12.1161H9.61126" stroke="black" stroke-width="2" stroke-linecap="round" stroke-linejoin="round"/>
<path d="M6.29024 12.1161H6.29876" stroke="black" stroke-width="2" stroke-linecap="round" stroke-linejoin="round"/>
</svg>
